<svg id="图层_1" data-name="图层 1" xmlns="http://www.w3.org/2000/svg" viewBox="0 0 24 24"><defs><style>.cls-1{fill:#2a2a2a;}.cls-2{fill:#e5c69d;}.cls-3{fill:#f4d8b0;}.cls-4,.cls-6{fill:#c8a07d;}.cls-4{opacity:0.7;}.cls-5{fill:#d8af86;}.cls-7{fill:#e4bf9d;}.cls-8{fill:#0f0f0f;}.cls-9{fill:#f9f5dd;}.cls-10{fill:#040001;}</style></defs><title>admin</title><circle class="cls-1" cx="12" cy="12" r="12" transform="translate(-0.27 23.72) rotate(-88.68)"/><path id="_路径_" data-name="&lt;路径&gt;" class="cls-2" d="M12,13.32v8.77H7.46L7.35,22c0-4.7,2.8-5.06,2.8-5.06.28,0,.46-.37.58-.94,0-.09,0-.18,0-.27s0-.33.06-.51l0-.32c0-.54.05-1.12.05-1.68C10.92,13.26,11.53,13.32,12,13.32Z"/><path id="_路径_2" data-name="&lt;路径&gt;" class="cls-3" d="M16.73,22l-.11.05H12V13.32h0c.5,0,1.12-.06,1.12-.06,0,.55,0,1.13.05,1.67l0,.32c0,.18,0,.36.06.52h0c0,.07,0,.14,0,.21.12.6.3,1,.59,1C13.93,17,16.73,17.33,16.73,22Z"/><path id="_路径_3" data-name="&lt;路径&gt;" class="cls-4" d="M13.3,15.76h0a1.47,1.47,0,0,1-1.27.72h0a1.58,1.58,0,0,1-1.26-.72c0-.16,0-.33.06-.51l0-.32a4.81,4.81,0,0,0,1.15.16h0a4.54,4.54,0,0,0,1.18-.17l0,.32C13.25,15.42,13.27,15.6,13.3,15.76Z"/><path id="_路径_4" data-name="&lt;路径&gt;" class="cls-5" d="M12,3.26c-4.84,0-4.87,4.23-4.65,7-.33-.66-1.31-.45-1.23.58A1.82,1.82,0,0,0,7.6,12.23,4.62,4.62,0,0,0,12,15.82h0V3.26Z"/><path id="_路径_5" data-name="&lt;路径&gt;" class="cls-6" d="M6.46,10.4a.45.45,0,0,1,.7-.14.43.43,0,0,1,.11.46c0,.13-.17.14-.13.34a.36.36,0,0,0,.19.29.46.46,0,0,1,.16.19.52.52,0,0,1,0,.28c0,.16-.26,0-.42,0a3,3,0,0,1-.5-.42A.94.94,0,0,1,6.46,10.4Z"/><path id="_路径_6" data-name="&lt;路径&gt;" class="cls-7" d="M12.07,3.26c4.84,0,4.87,4.23,4.65,7C17,9.6,18,9.8,18,10.83a1.82,1.82,0,0,1-1.45,1.39,4.62,4.62,0,0,1-4.44,3.59h0V3.26Z"/><path id="_路径_7" data-name="&lt;路径&gt;" class="cls-6" d="M17.64,10.4a.45.45,0,0,0-.7-.14.43.43,0,0,0-.11.46c0,.13.17.14.14.34a.35.35,0,0,1-.19.29.46.46,0,0,0-.16.19.52.52,0,0,0,0,.28c0,.16.26,0,.42,0a2.92,2.92,0,0,0,.5-.42A.94.94,0,0,0,17.64,10.4Z"/><path id="_路径_8" data-name="&lt;路径&gt;" class="cls-2" d="M12,4.45A4,4,0,0,0,8.53,5.89,6.05,6.05,0,0,0,8,10.71c.11.45.17,1.65.24,2.09a4,4,0,0,0,3.8,3h0V4.46Z"/><path id="_路径_9" data-name="&lt;路径&gt;" class="cls-3" d="M15.46,5.89A4,4,0,0,0,12,4.46V15.82a3.93,3.93,0,0,0,3.77-3c.08-.44.13-1.64.24-2.09A6,6,0,0,0,15.46,5.89Z"/><path id="_路径_10" data-name="&lt;路径&gt;" class="cls-8" d="M7.64,11.06c-.1,0,0-.54-.32-.91a5.3,5.3,0,0,1-.81-2.87A4.94,4.94,0,0,1,8,3.74,7.74,7.74,0,0,1,10.74,2L10,2.7a3.62,3.62,0,0,1,1.84-1,2.51,2.51,0,0,1,1.87,0s-.75,0-1,.31a1.22,1.22,0,0,1-.27.22s.35-.81,2-.14S16,4,17.13,4.35s1.48-.11,1.48-.11a1.78,1.78,0,0,1-1.39.86h-.16a8.05,8.05,0,0,1,.4,1.6c.07.7-.14,1.17-.2,2.48-.05,1.11-.35.54-.69,1.36a1.78,1.78,0,0,0-.12.59c-.13,0-.47-.67-.22-1.89.16-.79-.62-3.79-2.5-3.21-1.15.36-1.44,1.09-2.3.44A2.45,2.45,0,0,0,8.87,6c-.78.44-1.21,1.43-1.08,3C8,11.07,7.64,11.06,7.64,11.06Z"/><path id="_路径_11" data-name="&lt;路径&gt;" class="cls-9" d="M16.73,22l-.11.05H7.46L7.35,22c0-3.49,1.49-4.62,2.3-5a2,2,0,0,1,.45-.15,9.23,9.23,0,0,1,1.91.6A2.07,2.07,0,0,0,13.3,17s.59.11.61.08l.13-.13h0a2.38,2.38,0,0,1,.35.12h0l.08,0a3,3,0,0,1,.55.34l.08.06C15.88,18.12,16.73,19.41,16.73,22Z"/><path id="_路径_12" data-name="&lt;路径&gt;" class="cls-10" d="M15.9,18.38a3.28,3.28,0,0,0-1.45-1.31l-2.37,4.21,0,0,0,0L9.64,17.06a3.27,3.27,0,0,0-1.45,1.31,2.06,2.06,0,0,1,.38.81,8,8,0,0,1,.07,2.91h6.82a8,8,0,0,1,.07-2.91A2.06,2.06,0,0,1,15.9,18.38Z"/><path id="_路径_13" data-name="&lt;路径&gt;" class="cls-8" d="M13.13,13.48s-.68-.69-1-.16l-.06.08L12,13.32c-.31-.53-1,.16-1,.16s-.56.54-1,0a1.23,1.23,0,0,0,1.47.58.88.88,0,0,0,.56-.27.88.88,0,0,0,.56.27,1.23,1.23,0,0,0,1.47-.58C13.7,14,13.13,13.48,13.13,13.48Z"/><path id="_路径_14" data-name="&lt;路径&gt;" class="cls-2" d="M12,13.32v8.77H7.46L7.35,22c0-4.7,2.8-5.06,2.8-5.06.28,0,.46-.37.58-.94,0-.09,0-.18,0-.27s0-.33.06-.51l0-.32c0-.54.05-1.12.05-1.68C10.92,13.26,11.53,13.32,12,13.32Z"/><path id="_路径_15" data-name="&lt;路径&gt;" class="cls-3" d="M16.73,22l-.11.05H12V13.32h0c.5,0,1.12-.06,1.12-.06,0,.55,0,1.13.05,1.67l0,.32c0,.18,0,.36.06.52h0c0,.07,0,.14,0,.21.12.6.3,1,.59,1C13.93,17,16.73,17.33,16.73,22Z"/><path id="_路径_16" data-name="&lt;路径&gt;" class="cls-4" d="M13.3,15.76h0a1.47,1.47,0,0,1-1.27.72h0a1.58,1.58,0,0,1-1.26-.72c0-.16,0-.33.06-.51l0-.32a4.81,4.81,0,0,0,1.15.16h0a4.54,4.54,0,0,0,1.18-.17l0,.32C13.25,15.42,13.27,15.6,13.3,15.76Z"/><path id="_路径_17" data-name="&lt;路径&gt;" class="cls-5" d="M12,3.26c-4.84,0-4.87,4.23-4.65,7-.33-.66-1.31-.45-1.23.58A1.82,1.82,0,0,0,7.6,12.23,4.62,4.62,0,0,0,12,15.82h0V3.26Z"/><path id="_路径_18" data-name="&lt;路径&gt;" class="cls-6" d="M6.46,10.4a.45.45,0,0,1,.7-.14.43.43,0,0,1,.11.46c0,.13-.17.14-.13.34a.36.36,0,0,0,.19.29.46.46,0,0,1,.16.19.52.52,0,0,1,0,.28c0,.16-.26,0-.42,0a3,3,0,0,1-.5-.42A.94.94,0,0,1,6.46,10.4Z"/><path id="_路径_19" data-name="&lt;路径&gt;" class="cls-7" d="M12.07,3.26c4.84,0,4.87,4.23,4.65,7C17,9.6,18,9.8,18,10.83a1.82,1.82,0,0,1-1.45,1.39,4.62,4.62,0,0,1-4.44,3.59h0V3.26Z"/><path id="_路径_20" data-name="&lt;路径&gt;" class="cls-6" d="M17.64,10.4a.45.45,0,0,0-.7-.14.43.43,0,0,0-.11.46c0,.13.17.14.14.34a.35.35,0,0,1-.19.29.46.46,0,0,0-.16.19.52.52,0,0,0,0,.28c0,.16.26,0,.42,0a2.92,2.92,0,0,0,.5-.42A.94.94,0,0,0,17.64,10.4Z"/><path id="_路径_21" data-name="&lt;路径&gt;" class="cls-3" d="M12,4.45A4,4,0,0,0,8.53,5.89,6.05,6.05,0,0,0,8,10.71c.11.45.17,1.65.24,2.09a4,4,0,0,0,3.8,3h0V4.46Z"/><path id="_路径_22" data-name="&lt;路径&gt;" class="cls-3" d="M15.46,5.89A4,4,0,0,0,12,4.46V15.82a3.93,3.93,0,0,0,3.77-3c.08-.44.13-1.64.24-2.09A6,6,0,0,0,15.46,5.89Z"/><path id="_路径_23" data-name="&lt;路径&gt;" class="cls-8" d="M7.64,11.06c-.1,0,0-.54-.32-.91a5.3,5.3,0,0,1-.81-2.87A4.94,4.94,0,0,1,8,3.74,7.74,7.74,0,0,1,10.74,2L10,2.7a3.62,3.62,0,0,1,1.84-1,2.51,2.51,0,0,1,1.87,0s-.75,0-1,.31a1.22,1.22,0,0,1-.27.22s.35-.81,2-.14S16,4,17.13,4.35s1.48-.11,1.48-.11a1.78,1.78,0,0,1-1.39.86h-.16a8.05,8.05,0,0,1,.4,1.6c.07.7-.14,1.17-.2,2.48-.05,1.11-.35.54-.69,1.36a1.78,1.78,0,0,0-.12.59c-.13,0-.47-.67-.22-1.89.16-.79-.62-3.79-2.5-3.21-1.15.36-1.44,1.09-2.3.44A2.45,2.45,0,0,0,8.87,6c-.78.44-1.21,1.43-1.08,3C8,11.07,7.64,11.06,7.64,11.06Z"/><path id="_路径_24" data-name="&lt;路径&gt;" class="cls-9" d="M16.73,22l-.11.05H7.46L7.35,22c0-3.49,1.49-4.62,2.3-5a2,2,0,0,1,.45-.15,9.23,9.23,0,0,1,1.91.6A2.07,2.07,0,0,0,13.3,17s.59.11.61.08l.13-.13h0a2.38,2.38,0,0,1,.35.12h0l.08,0a3,3,0,0,1,.55.34l.08.06C15.88,18.12,16.73,19.41,16.73,22Z"/><path id="_路径_25" data-name="&lt;路径&gt;" class="cls-10" d="M15.9,18.38a3.28,3.28,0,0,0-1.45-1.31l-2.37,4.21,0,0,0,0L9.64,17.06a3.27,3.27,0,0,0-1.45,1.31,2.06,2.06,0,0,1,.38.81,8,8,0,0,1,.07,2.91h6.82a8,8,0,0,1,.07-2.91A2.06,2.06,0,0,1,15.9,18.38Z"/><path id="_路径_26" data-name="&lt;路径&gt;" class="cls-8" d="M13.13,13.48s-.68-.69-1-.16l-.06.08L12,13.32c-.31-.53-1,.16-1,.16s-.56.54-1,0a1.23,1.23,0,0,0,1.47.58.88.88,0,0,0,.56-.27.88.88,0,0,0,.56.27,1.23,1.23,0,0,0,1.47-.58C13.7,14,13.13,13.48,13.13,13.48Z"/></svg>