<svg id="图层_1" data-name="图层 1" xmlns="http://www.w3.org/2000/svg" viewBox="0 0 16 16"><defs><style>.cls-1{fill:#666;}.cls-2{fill:none;}</style></defs><title>hzsw</title><path class="cls-1" d="M13.64,2.42a1.24,1.24,0,0,0-.88-.36H11.51v.62h1.24a.62.62,0,0,1,.62.62V14.5a.62.62,0,0,1-.62.62H4a.62.62,0,0,1-.62-.62V3.3A.62.62,0,0,1,4,2.68H5.29V2.05H4A1.24,1.24,0,0,0,2.8,3.3V14.5A1.24,1.24,0,0,0,4,15.74h8.71A1.25,1.25,0,0,0,14,14.5V3.3a1.24,1.24,0,0,0-.36-.88Zm0,0"/><rect class="cls-2" x="2.8" y="1.11" width="11.2" height="14.65"/><rect class="cls-1" x="7.16" y="2.05" width="2.49" height="0.62"/><path class="cls-1" d="M6.22,3.61a.31.31,0,0,0,.31-.31V1.43a.31.31,0,0,0-.62,0V3.3a.31.31,0,0,0,.31.31Zm0,0"/><path class="cls-1" d="M10.58,3.61a.31.31,0,0,0,.31-.31V1.43a.31.31,0,0,0-.62,0V3.3a.31.31,0,0,0,.31.31Zm0,0"/><path class="cls-1" d="M12.13,5.79H6.53a.31.31,0,1,0,0,.62h5.6a.31.31,0,0,0,0-.62Zm0,0"/><path class="cls-1" d="M4.67,5.79a.31.31,0,0,0,0,.62h.62a.31.31,0,0,0,0-.62Zm0,0"/><path class="cls-1" d="M12.13,8.28H6.53a.31.31,0,1,0,0,.62h5.6a.31.31,0,0,0,0-.62Zm0,0"/><path class="cls-1" d="M5.29,8.28H4.67a.31.31,0,1,0,0,.62h.62a.31.31,0,0,0,0-.62Zm0,0"/><path class="cls-1" d="M12.13,10.77H6.53a.31.31,0,1,0,0,.62h5.6a.31.31,0,1,0,0-.62Zm0,0"/><path class="cls-1" d="M5.29,10.77H4.67a.31.31,0,1,0,0,.62h.62a.31.31,0,1,0,0-.62Zm0,0"/></svg>