<svg id="图层_1" data-name="图层 1" xmlns="http://www.w3.org/2000/svg" viewBox="0 0 16 16"><defs><style>.cls-1{fill:#666;stroke:#666;stroke-miterlimit:10;stroke-width:0.1px;}</style></defs><title>App</title><path class="cls-1" d="M8.9,13.26H7.29a.13.13,0,0,1,0-.27H8.9a.13.13,0,0,1,0,.27ZM5.14,7.63l-.07,0a.13.13,0,0,1,0-.19L7.18,4.2a.13.13,0,0,1,.22.15L5.26,7.57a.13.13,0,0,1-.11.06ZM4.88,5.75l-.07,0a.13.13,0,0,1,0-.18l.8-1.34a.14.14,0,0,1,.18,0,.13.13,0,0,1,0,.18L5,5.68a.14.14,0,0,1-.12.07Zm8,6.57H3.27a.27.27,0,0,1,0-.54h9.65a.27.27,0,1,1,0,.54Zm0-9.25H3.27a.13.13,0,0,1,0-.27h9.65a.13.13,0,0,1,.13.13.14.14,0,0,1-.14.13Zm0,0"/><path class="cls-1" d="M11.85,15H4.34A1.34,1.34,0,0,1,3,13.66V2.93A1.34,1.34,0,0,1,4.34,1.59h7.51a1.34,1.34,0,0,1,1.34,1.34V13.66A1.34,1.34,0,0,1,11.85,15ZM4.34,2.13a.81.81,0,0,0-.8.8V13.66a.81.81,0,0,0,.8.8h7.51a.8.8,0,0,0,.8-.8V2.94a.81.81,0,0,0-.8-.8Zm0,0"/></svg>