<svg id="图层_1" data-name="图层 1" xmlns="http://www.w3.org/2000/svg" viewBox="0 0 24 24"><defs><style>.cls-1{fill:#fff;}</style></defs><title>chaxun-w</title><path class="cls-1" d="M10,17.53A7.47,7.47,0,1,1,13,16.94a7.45,7.45,0,0,1-2.92.59ZM10,3.64a6.4,6.4,0,1,0,6.4,6.4A6.41,6.41,0,0,0,10,3.64ZM19.31,21a1.69,1.69,0,0,1-1.2-.49l-3.23-3.13.76-.78,3.24,3.14a.61.61,0,0,0,.87-.87h0L16.6,15.62l.78-.76,3.13,3.23A1.7,1.7,0,0,1,19.31,21Zm0,0"/><path class="cls-1" d="M6.8,13.28a4.6,4.6,0,0,1,0-6.5l.77.77a3.51,3.51,0,0,0,0,5Zm0,0"/></svg>