<svg id="图层_1" data-name="图层 1" xmlns="http://www.w3.org/2000/svg" viewBox="0 0 24 24"><defs><style>.cls-1{fill:#b8b8b8;}</style></defs><title>chufa</title><path class="cls-1" d="M12.09,11,10.2,9.15a.74.74,0,0,0-1,0h0a.74.74,0,0,0,0,1L11,12.09,9.15,14a.74.74,0,0,0,0,1h0a.74.74,0,0,0,1,0l1.89-1.89L14,15a.74.74,0,0,0,1,0h0a.74.74,0,0,0,0-1l-1.89-1.89L15,10.2a.74.74,0,0,0,0-1h0a.74.74,0,0,0-1,0Zm0,10A8.91,8.91,0,1,1,21,12.09,8.92,8.92,0,0,1,12.09,21Zm0-16.33a7.42,7.42,0,1,0,7.42,7.42,7.43,7.43,0,0,0-7.42-7.42Zm0,0"/></svg>