<svg id="图层_1" data-name="图层 1" xmlns="http://www.w3.org/2000/svg" viewBox="0 0 16 16"><defs><style>.cls-1{fill:#666;}</style></defs><title>hehuminlu</title><path class="cls-1" d="M12.45,1.31h-.83a.5.5,0,0,0-.49.43c0,.23.26.36.49.36h.83a.93.93,0,0,1,.93.9l-.07,9.65a1,1,0,0,1-.94.94l-8.87-.07c-.49,0-1.14-.46-1.14-1l.07-9.65A.87.87,0,0,1,3.37,2h1a.33.33,0,0,0,.37-.35.35.35,0,0,0-.37-.38h-1A1.52,1.52,0,0,0,1.71,2.93l-.07,9.54a1.63,1.63,0,0,0,1.72,1.78l8.91.07A1.57,1.57,0,0,0,14,12.56L14.09,3a1.56,1.56,0,0,0-1.63-1.71M4.38,5a.4.4,0,0,0,.42.37l6.19,0a.4.4,0,0,0,.42-.36A.4.4,0,0,0,11,4.72l-6.19,0A.4.4,0,0,0,4.38,5M11,7,4.79,7a.37.37,0,1,0,0,.73l6.19,0a.4.4,0,0,0,.42-.36A.42.42,0,0,0,11,7m0,2.52-6.17,0a.37.37,0,1,0,0,.73l6.19,0a.4.4,0,0,0,.42-.36.42.42,0,0,0-.44-.37M6.49,2.13l2.88,0A.59.59,0,0,0,10,1.61a.6.6,0,0,0-.63-.55L6.5,1a.6.6,0,0,0-.63.54.6.6,0,0,0,.63.55"/></svg>