<svg id="图层_1" data-name="图层 1" xmlns="http://www.w3.org/2000/svg" viewBox="0 0 16 16"><defs><style>.cls-1{fill:#fff;}</style></defs><title>home</title><path class="cls-1" d="M13.47,9.17v4.56a.62.62,0,0,1-.61.61H9.22V10.69H6.78v3.65H3.14a.62.62,0,0,1-.61-.61V9.12L8,4.61l5.46,4.5a.13.13,0,0,1,0,.06Zm2.12-.66-.59.7a.32.32,0,0,1-.2.1h0a.29.29,0,0,1-.2-.07L8,3.78,1.43,9.26a.35.35,0,0,1-.23.07.32.32,0,0,1-.2-.1l-.59-.7A.31.31,0,0,1,.34,8.3a.28.28,0,0,1,.1-.2L7.28,2.4a1.18,1.18,0,0,1,1.44,0L11,4.34V2.49a.29.29,0,0,1,.3-.3h1.82a.29.29,0,0,1,.3.3V6.36l2.08,1.73a.27.27,0,0,1,.1.2.31.31,0,0,1-.07.22Zm0,0"/></svg>