<svg id="图层_1" data-name="图层 1" xmlns="http://www.w3.org/2000/svg" viewBox="0 0 16 16"><defs><style>.cls-1{fill:#666;}</style></defs><title>home</title><path class="cls-1" d="M15.89,8.72,8.27,1.11a.38.38,0,0,0-.54,0L2,6.84.11,8.72a.39.39,0,0,0,0,.54.38.38,0,0,0,.54,0L1.92,8v6.32a1.53,1.53,0,0,0,1.51,1.53H6.12a.39.39,0,0,0,.39-.39V12.07H9.93a.4.4,0,0,0,0-.79H6.12a.39.39,0,0,0-.39.4v3.41H3.43a.77.77,0,0,1-.78-.74V7.23L8,1.9,15.3,9.21a.36.36,0,0,0,.29.1.69.69,0,0,0,.29-.1.33.33,0,0,0,0-.49Zm-2.2,1a.39.39,0,0,0-.39.4v4.2a.77.77,0,0,1-.78.74H9.83a.4.4,0,0,0,0,.79h2.69A1.53,1.53,0,0,0,14,14.35v-4.2a.31.31,0,0,0-.34-.4Zm0,0"/></svg>