<svg id="图层_1" data-name="图层 1" xmlns="http://www.w3.org/2000/svg" viewBox="0 0 24 24"><defs><style>.cls-1{fill:#e5bd99;}.cls-2{fill:#dcdcdc;}.cls-3{fill:#ee5d54;}.cls-4{fill:#134c61;}.cls-5{fill:#18627d;}.cls-6{fill:#fdfffe;}.cls-7{fill:#efd0b4;}</style></defs><title>men1</title><rect class="cls-1" x="10.56" y="14.5" width="3.61" height="2.56"/><rect class="cls-2" x="9.85" y="16.81" width="4.81" height="4.19"/><polygon class="cls-3" points="13.39 21 13.24 17.93 13.8 17.34 12.44 16.81 10.96 17.55 11.54 18.01 11.4 21 13.39 21"/><path class="cls-4" d="M3.79,21a11.72,11.72,0,0,1,2.73-3.55L6.38,21Z"/><path class="cls-5" d="M6.52,17.44A4.89,4.89,0,0,1,9,16.28l.62.68.23,1.89L9.56,21H6.38Z"/><polygon class="cls-4" points="9 16.28 8.4 17.4 9.21 18.04 8.4 19.82 9.56 20.98 11.15 21 9.97 16.07 9 16.28"/><polygon class="cls-6" points="9.97 16.07 10.46 15.95 12.44 16.81 10.45 18.1 9.97 16.07"/><path class="cls-4" d="M21.1,21a11.71,11.71,0,0,0-2.73-3.55L18.52,21Z"/><path class="cls-5" d="M18.38,17.44a4.89,4.89,0,0,0-2.48-1.15l-.62.68L15,18.85,15.33,21h3.19Z"/><polygon class="cls-4" points="15.89 16.28 16.49 17.4 15.68 18.04 16.49 19.82 15.33 20.98 13.74 21 14.92 16.07 15.89 16.28"/><polygon class="cls-6" points="14.92 16.07 14.43 15.95 12.44 16.81 14.44 18.1 14.92 16.07"/><path class="cls-7" d="M16.81,10H16.7v0c0-2.94-2-5.33-4.33-5.33S8.14,7.06,8.14,10H8.09c-.22.05-.32.48-.21.95a1,1,0,0,0,.49.75,4.41,4.41,0,0,0,4,3.57,4.53,4.53,0,0,0,4.09-3.56c.21,0,.45-.33.56-.76S17,10.07,16.81,10Z"/><path class="cls-4" d="M16.15,11.62a3.34,3.34,0,0,0,.65-1.6s.16,0,.22.28a7.76,7.76,0,0,0,.29-2.21c0-1.21-.71-4.44-5.19-4.21s-4.51,4-4.55,4.4a5.07,5.07,0,0,0,.31,2S8,10,8.14,10s.5,1.56.75,1.58.19-1.69.17-2.34,0-2.45,1.56-2.58a28.67,28.67,0,0,1,3.61,0c.35,0,1.9.23,1.75,2.55S16.07,11.62,16.15,11.62Z"/></svg>