<svg id="图层_1" data-name="图层 1" xmlns="http://www.w3.org/2000/svg" viewBox="0 0 16 16"><defs><style>.cls-1{fill:#666;}</style></defs><title>cdgl</title><path class="cls-1" d="M5.93,7.71H3A1.46,1.46,0,0,1,1.55,6.25V3.33A1.46,1.46,0,0,1,3,1.87H5.93A1.46,1.46,0,0,1,7.39,3.33V6.25A1.46,1.46,0,0,1,5.93,7.71Zm.73-4.38a.73.73,0,0,0-.73-.73H3a.73.73,0,0,0-.73.73V6.25A.73.73,0,0,0,3,7H5.93a.73.73,0,0,0,.73-.73ZM5.93,15H3a1.46,1.46,0,0,1-1.46-1.46V10.62A1.46,1.46,0,0,1,3,9.17H5.93a1.46,1.46,0,0,1,1.46,1.46v2.92A1.46,1.46,0,0,1,5.93,15Zm.73-4.38a.73.73,0,0,0-.73-.73H3a.73.73,0,0,0-.73.73v2.92a.73.73,0,0,0,.73.73H5.93a.73.73,0,0,0,.73-.73Zm7.66,1.83a.36.36,0,0,1-.37-.36V10.62a.73.73,0,0,0-.73-.73H10.3a.73.73,0,0,0-.73.73v2.92a.73.73,0,0,0,.73.73h1.46a.36.36,0,1,1,0,.73H10.3a1.46,1.46,0,0,1-1.46-1.46V10.62A1.46,1.46,0,0,1,10.3,9.17h2.92a1.46,1.46,0,0,1,1.46,1.46v1.46a.36.36,0,0,1-.36.36ZM13.22,7.71H10.3A1.46,1.46,0,0,1,8.84,6.25V3.33A1.46,1.46,0,0,1,10.3,1.87h2.92a1.46,1.46,0,0,1,1.46,1.46V6.25a1.46,1.46,0,0,1-1.46,1.46Zm.73-4.38a.73.73,0,0,0-.73-.73H10.3a.73.73,0,0,0-.73.73V6.25A.73.73,0,0,0,10.3,7h2.92a.73.73,0,0,0,.73-.73Zm0,0"/></svg>