<svg id="图层_1" data-name="图层 1" xmlns="http://www.w3.org/2000/svg" viewBox="0 0 48 48"><defs><style>.cls-1{fill:#3f51b5;}.cls-2{fill:#1e88e5;}.cls-3{fill:#64b5f6;}.cls-4{fill:#bbdefb;}</style></defs><title>motion_detector</title><path class="cls-1" d="M18,12a5,5,0,0,1-5-5A5,5,0,0,1,23,7,5,5,0,0,1,18,12Z"/><path class="cls-1" d="M10,22v8l3,2,1,14h8l1-14,3-2V22a8,8,0,0,0-8-8h0A8,8,0,0,0,10,22Z"/><path class="cls-2" d="M30,33.7V22a13.7,13.7,0,0,0-4-10.2A11.49,11.49,0,0,0,27,7a11.81,11.81,0,0,0-1.1-5H23.2A8,8,0,0,1,25,7a10.17,10.17,0,0,1-2.1,5.6S28,14.8,28,22v9.6l-3.1,2.1L24,46h2l.7-10.1Z"/><path class="cls-3" d="M29,7a14.6,14.6,0,0,1-.7,4.3A17.69,17.69,0,0,1,32,22V35.1l-3.4,2.2L28,46h2l.5-7.6,3.4-2.3V22a19.23,19.23,0,0,0-3.5-11.1A13.2,13.2,0,0,0,31,7a16.87,16.87,0,0,0-.8-5H28.1A13.86,13.86,0,0,1,29,7Z"/><path class="cls-4" d="M33,7a19.83,19.83,0,0,1-.3,3.5A22.26,22.26,0,0,1,36,22V37.2l-3.5,2.3L32,46h2l.4-5.3L38,38.3V22a23.59,23.59,0,0,0-3.2-11.9c.1-1,.2-2.1.2-3.1a20.74,20.74,0,0,0-.6-5H32.3A16.79,16.79,0,0,1,33,7Z"/></svg>