<?xml version="1.0" encoding="utf-8"?>
<!-- Generator: Adobe Illustrator 21.0.0, SVG Export Plug-In . SVG Version: 6.00 Build 0)  -->
<svg version="1.1" id="图层_1" xmlns="http://www.w3.org/2000/svg" xmlns:xlink="http://www.w3.org/1999/xlink" x="0px" y="0px"
	 viewBox="0 0 60 36" style="enable-background:new 0 0 60 36;" xml:space="preserve">
<style type="text/css">
	.st0{fill:#999999;}
</style>
<rect x="40.2" y="3.5" class="st0" width="1" height="29.1"/>
<path class="st0" d="M23.6,2.2c-5.3,0-9.6,4.3-9.6,9.6c0,1,0.2,2,0.4,2.9L3,26.1c-0.1,0.1-0.2,0.3-0.2,0.5v5.3
	c0,0.4,0.3,0.7,0.7,0.7h4.6c0.2,0,0.3-0.1,0.5-0.2L9.9,31c0.1-0.1,0.2-0.3,0.2-0.5v-2.1h2.1c0.4,0,0.7-0.3,0.7-0.7v-1.9h1.9
	c0.2,0,0.3-0.1,0.5-0.2l5.1-5c4.9,1.9,10.5-0.6,12.4-5.5S32,4.7,27,2.8C25.9,2.4,24.8,2.2,23.6,2.2L23.6,2.2z M16.9,16.9L5.7,28.1
	c-0.1,0.2-0.3,0.2-0.5,0.1c-0.2-0.1-0.2-0.3-0.1-0.5c0,0,0.1-0.1,0.1-0.1l11.2-11.2c0.2-0.1,0.4-0.1,0.5,0.1
	C17,16.6,17,16.8,16.9,16.9L16.9,16.9z M28.3,15.9l-0.5,0.5L19,7.5L19.5,7c2.5-2.4,6.4-2.4,8.9,0S30.8,13.4,28.3,15.9z"/>
</svg>
