<svg id="图层_1" data-name="图层 1" xmlns="http://www.w3.org/2000/svg" viewBox="0 0 36 36"><defs><style>.cls-1{fill:#999;}</style></defs><title>psaaword</title><path class="cls-1" d="M23.66,2.2a10.35,10.35,0,0,0-9.85,13.48L1.41,28.08a.72.72,0,0,0-.21.51v5.7a.71.71,0,0,0,.71.71h5a.72.72,0,0,0,.5-.21l1.44-1.44a.72.72,0,0,0,.21-.5V30.58h2.27a.71.71,0,0,0,.71-.71v-2h2a.72.72,0,0,0,.5-.21L20,22.21a10.34,10.34,0,1,0,3.67-20ZM16.45,18.12,4.3,30.26a.36.36,0,1,1-.5-.5L15.94,17.62a.36.36,0,0,1,.5.5ZM28.79,17l-.5.5L18.71,7.91l.5-.5A6.77,6.77,0,0,1,28.79,17Zm0,0"/></svg>