<svg id="图层_1" data-name="图层 1" xmlns="http://www.w3.org/2000/svg" viewBox="0 0 16 16"><defs><style>.cls-1{fill:#666;}</style></defs><title>jsgl</title><path class="cls-1" d="M12,10.76a1.48,1.48,0,1,0,1.48,1.48A1.48,1.48,0,0,0,12,10.76ZM12,13a.72.72,0,1,1,.51-.21A.72.72,0,0,1,12,13Zm3.91-1.49a.52.52,0,0,0-.48-.48h0a.84.84,0,0,1-.84-.84,1,1,0,0,1,.07-.32.61.61,0,0,0-.23-.75l-1-.54a.66.66,0,0,0-.71.14,1.27,1.27,0,0,1-.67.39,1.28,1.28,0,0,1-.67-.39.66.66,0,0,0-.71-.15h0l-1,.55h0a.6.6,0,0,0-.21.73,1,1,0,0,1,.07.32.84.84,0,0,1-.84.84h0a.52.52,0,0,0-.48.48,4.9,4.9,0,0,0-.08.78,4.94,4.94,0,0,0,.08.78.52.52,0,0,0,.48.48h0a.84.84,0,0,1,.84.84,1,1,0,0,1-.07.32.61.61,0,0,0,.23.75l1,.53a.65.65,0,0,0,.72-.15,1.3,1.3,0,0,1,.68-.41,1.29,1.29,0,0,1,.69.42.65.65,0,0,0,.48.2.62.62,0,0,0,.27-.06l1-.53,0,0a.6.6,0,0,0,.21-.73,1,1,0,0,1-.07-.32.84.84,0,0,1,.84-.84h0a.52.52,0,0,0,.48-.48,5.21,5.21,0,0,0,.08-.78,5,5,0,0,0-.08-.78Zm-.73,1.29a1.57,1.57,0,0,0-1.3,2.07l-.7.39A2.77,2.77,0,0,0,12.9,15a1.53,1.53,0,0,0-.89-.35,1.53,1.53,0,0,0-.88.34,2.89,2.89,0,0,0-.29.24l-.67-.37a1.57,1.57,0,0,0-1.3-2.07,3.75,3.75,0,0,1,0-.51,3.73,3.73,0,0,1,0-.51,1.6,1.6,0,0,0,1.39-1.58,1.58,1.58,0,0,0-.08-.48l.72-.4a2.67,2.67,0,0,0,.29.24,1.52,1.52,0,0,0,.87.33,1.52,1.52,0,0,0,.86-.32,2.69,2.69,0,0,0,.28-.23l.69.38a1.57,1.57,0,0,0-.09.48,1.6,1.6,0,0,0,1.39,1.58,3.69,3.69,0,0,1,0,.51,3.69,3.69,0,0,1,0,.51ZM2,14.92v-.84A5.5,5.5,0,0,1,7,8.63H7l.52,0h.08a3.8,3.8,0,0,0,2-.63l.24-.19a3.78,3.78,0,0,0,1.47-3,3.83,3.83,0,0,0-7.67,0,3.77,3.77,0,0,0,1.47,3L5.38,8l-.28.11a6.43,6.43,0,0,0-4.1,6v1.33a.49.49,0,0,0,.49.49H8.71a5,5,0,0,1-.6-1ZM4.66,4.8A2.85,2.85,0,1,1,7.5,7.63,2.84,2.84,0,0,1,4.66,4.8Zm0,0"/></svg>