<svg id="图层_1" data-name="图层 1" xmlns="http://www.w3.org/2000/svg" viewBox="0 0 16 16"><defs><style>.cls-1{fill:#fff;}</style></defs><title>set</title><path class="cls-1" d="M15,11.24a3,3,0,0,0-.47-1L15,9.35l-.46-.47-.91.54a2.94,2.94,0,0,0-1-.38l-.26-1h-.66l-.26,1a2.9,2.9,0,0,0-.95.38l-.91-.55-.46.47.53.88a3,3,0,0,0-.47,1l-.93.23v.66l.87.22a3,3,0,0,0,.44,1.19l-.43.72.46.47.68-.41a2.93,2.93,0,0,0,1.25.55l.18.74h.66l.19-.74a3,3,0,0,0,1.25-.55l.69.41.46-.47-.43-.72A2.93,2.93,0,0,0,15,12.35l.87-.22v-.66Zm-2.86,2.36a1.65,1.65,0,1,1,1.64-1.65,1.64,1.64,0,0,1-1.64,1.65ZM9.21,8.48a5.76,5.76,0,0,0-1.78-.87,3.8,3.8,0,1,0-3.29,0,5.56,5.56,0,0,0-4,5.3,25.43,25.43,0,0,0,5.8.79,18.59,18.59,0,0,0,2.17-.14A4.39,4.39,0,0,1,9.21,8.48Zm0,0"/></svg>