<svg id="图层_1" data-name="图层 1" xmlns="http://www.w3.org/2000/svg" viewBox="0 0 24 24"><defs><style>.cls-1{fill:#666;}</style></defs><title>shanchu</title><path class="cls-1" d="M20,9.06H19V17.9A2.08,2.08,0,0,1,16.88,20H7.52A2.08,2.08,0,0,1,5.45,17.9V9.06h-1v9.86A2.08,2.08,0,0,0,6.48,21H17.92A2.08,2.08,0,0,0,20,18.92Zm0,0"/><path class="cls-1" d="M17.4,7v-1a2.08,2.08,0,0,0-2.08-2.08H9A2,2,0,0,0,7,5.95V7H3.4V8H21V7ZM8,7v-1a1,1,0,0,1,1-1h6.31a1,1,0,0,1,1,1V7ZM8,7"/><rect class="cls-1" x="9.23" y="9.48" width="1.04" height="9.07"/><rect class="cls-1" x="14.14" y="9.48" width="1.04" height="9.07"/></svg>