<svg id="图层_1" data-name="图层 1" xmlns="http://www.w3.org/2000/svg" viewBox="0 0 24 24"><defs><style>.cls-1{fill:#b8b8b8;}</style></defs><title>shezhi</title><path class="cls-1" d="M21.37,9.38l-1.46.85a7,7,0,0,1,0,2.74l1.46.85a1.26,1.26,0,0,1,.45,1.71L20.58,17.7a1.24,1.24,0,0,1-1.7.46l-1.47-.86a7.44,7.44,0,0,1-2.34,1.38v1.06A1.25,1.25,0,0,1,13.84,21H11.35a1.25,1.25,0,0,1-1.24-1.25V18.68A7.44,7.44,0,0,1,7.77,17.3l-1.47.86a1.24,1.24,0,0,1-1.7-.46L3.36,15.53a1.26,1.26,0,0,1,.45-1.71L5.27,13a7,7,0,0,1,0-2.74L3.81,9.38a1.26,1.26,0,0,1-.45-1.71L4.6,5.5A1.24,1.24,0,0,1,6.3,5l1.47.86a7.44,7.44,0,0,1,2.34-1.38V3.45A1.25,1.25,0,0,1,11.35,2.2h2.49a1.25,1.25,0,0,1,1.24,1.25V4.52A7.44,7.44,0,0,1,17.41,5.9L18.88,5a1.24,1.24,0,0,1,1.7.46l1.24,2.17a1.26,1.26,0,0,1-.45,1.71Zm-.93-1.63-.62-1.09A.62.62,0,0,0,19,6.44l-1.73,1a6.19,6.19,0,0,0-3.41-2V4.08a.62.62,0,0,0-.62-.63H12a.62.62,0,0,0-.62.63V5.46a6.19,6.19,0,0,0-3.41,2l-1.73-1a.62.62,0,0,0-.85.23L4.75,7.76A.63.63,0,0,0,5,8.61l1.73,1a6.09,6.09,0,0,0,0,4L5,14.59a.63.63,0,0,0-.23.86l.62,1.09a.62.62,0,0,0,.85.23l1.73-1a6.19,6.19,0,0,0,3.41,2v1.38a.62.62,0,0,0,.62.63h1.24a.62.62,0,0,0,.62-.63V17.74a6.19,6.19,0,0,0,3.41-2l1.73,1a.62.62,0,0,0,.85-.23l.62-1.09a.63.63,0,0,0-.23-.86l-1.73-1a6.09,6.09,0,0,0,0-4l1.73-1a.63.63,0,0,0,.23-.86Zm-7.85,7A3.13,3.13,0,1,1,15.7,11.6a3.12,3.12,0,0,1-3.11,3.13Zm0-5a1.88,1.88,0,1,0,1.86,1.88,1.87,1.87,0,0,0-1.86-1.88Zm0,0"/></svg>