<svg id="图层_1" data-name="图层 1" xmlns="http://www.w3.org/2000/svg" viewBox="0 0 24 24"><defs><style>.cls-1{fill:#b8b8b8;}</style></defs><title>spxt</title><path class="cls-1" d="M14.12,5.93H3A1.81,1.81,0,0,0,1.15,7.73v9.14A1.81,1.81,0,0,0,3,18.68H14.12A1.81,1.81,0,0,0,16,16.87V7.79a1.82,1.82,0,0,0-1.86-1.86Zm7.61.93a.41.41,0,0,0-.44.05L17.62,9.76a.47.47,0,0,0-.16.33v4.54a.39.39,0,0,0,.16.33l3.67,2.85a.42.42,0,0,0,.27.11.41.41,0,0,0,.22-.05.37.37,0,0,0,.22-.38V7.24a.41.41,0,0,0-.27-.38Zm0,0"/></svg>