<svg id="图层_1" data-name="图层 1" xmlns="http://www.w3.org/2000/svg" viewBox="0 0 16 16"><defs><style>.cls-1{fill:#666;}</style></defs><title>szsy</title><path class="cls-1" d="M3.76,13.5h8.65A5.56,5.56,0,0,0,9.27,8.29,3.17,3.17,0,1,0,6,8.29,5.42,5.42,0,0,0,3,12.62a.79.79,0,0,0,.79.88ZM6.35,9h0a.79.79,0,0,0,.48-.73v0a.79.79,0,0,0-.1-.39.78.78,0,0,0-.28-.29l0,0a2.35,2.35,0,0,1-1.17-2,2.38,2.38,0,1,1,4.75,0,2.35,2.35,0,0,1-1.17,2l0,0a.8.8,0,0,0-.28.29.79.79,0,0,0-.1.39v0A.79.79,0,0,0,8.93,9H9a4.63,4.63,0,0,1,2.6,3.69H3.76A4.63,4.63,0,0,1,6.35,9Zm0,0"/><path class="cls-1" d="M12.79,9.1a2.77,2.77,0,0,0-2.6-4.86,3.13,3.13,0,0,1,.25.76,2,2,0,0,1,.85-.2,2,2,0,0,1,1.92,2.48,2.05,2.05,0,0,1-.91,1.2l.15-.1a.79.79,0,0,0-.36.66v.09a.79.79,0,0,0,.45.71l-.08,0a3.73,3.73,0,0,1,2,2.9H11.29a6.4,6.4,0,0,1,.05.79h3a.79.79,0,0,0,.79-.89A4.57,4.57,0,0,0,12.79,9.1Zm0,0"/><path class="cls-1" d="M2.58,9.1A4.57,4.57,0,0,0,.19,12.61.79.79,0,0,0,1,13.5H4a6.4,6.4,0,0,1,.05-.79H1a3.73,3.73,0,0,1,2-2.9l-.08,0a.79.79,0,0,0,.45-.71V9a.79.79,0,0,0-.36-.66l.15.1a2.05,2.05,0,0,1-.91-1.2A2,2,0,0,1,4.08,4.79a2,2,0,0,1,.85.2,3.13,3.13,0,0,1,.25-.76A2.77,2.77,0,0,0,2.58,9.1Zm0,0"/></svg>