<svg id="图层_1" data-name="图层 1" xmlns="http://www.w3.org/2000/svg" viewBox="0 0 16 16"><defs><style>.cls-1{fill:#666;}</style></defs><title>jcsj</title><path class="cls-1" d="M14.71,14.42h-.41V6.23A.29.29,0,0,0,14,5.94H11.18a.29.29,0,0,0-.29.29v8.18h-.83V2.7a.29.29,0,0,0-.29-.29H6.94a.29.29,0,0,0-.29.29V14.42H5.82V8a.29.29,0,0,0-.29-.29H2.7A.29.29,0,0,0,2.41,8v6.42H1.58V1.29a.29.29,0,0,0-.58,0V14.71a.29.29,0,0,0,.29.29H14.71a.29.29,0,1,0,0-.58Zm-9.47,0H3V8.29H5.24Zm4.24,0H7.23V3H9.47Zm4.24,0H11.47V6.53h2.24Zm0,0"/></svg>