<svg id="图层_1" data-name="图层 1" xmlns="http://www.w3.org/2000/svg" viewBox="0 0 16 16"><defs><style>.cls-1{fill:#666;}</style></defs><title>yhgl</title><path class="cls-1" d="M8.61,9.73A4.45,4.45,0,0,1,4.11,5.37,4.45,4.45,0,0,1,8.61,1a4.45,4.45,0,0,1,4.51,4.37A4.45,4.45,0,0,1,8.61,9.73Zm0-8a3.74,3.74,0,0,0-3.8,3.66A3.74,3.74,0,0,0,8.61,9a3.74,3.74,0,0,0,3.8-3.66,3.74,3.74,0,0,0-3.8-3.66Zm0,0"/><path class="cls-1" d="M1.35,16H1.29A.36.36,0,0,1,1,15.59,7.83,7.83,0,0,1,8.62,9a7.53,7.53,0,0,1,4.9,1.81.35.35,0,1,1-.45.54A6.88,6.88,0,0,0,8.61,9.73a7.11,7.11,0,0,0-6.91,6,.36.36,0,0,1-.35.3Zm14.29-2H9.88a.35.35,0,1,1,0-.71h5.76a.35.35,0,0,1,0,.71Zm0,2H9.88a.35.35,0,1,1,0-.71h5.76a.35.35,0,0,1,0,.71Zm0,0"/></svg>