<svg id="图层_1" data-name="图层 1" xmlns="http://www.w3.org/2000/svg" viewBox="0 0 24 24"><defs><style>.cls-1{fill:#666;}</style></defs><title>xinzeng</title><path class="cls-1" d="M20.19,19.47H18.24v1.94a.58.58,0,0,1-1.17,0V19.47H15.13a.58.58,0,0,1,0-1.17h1.94V16.36a.58.58,0,1,1,1.17,0v1.94h1.94a.58.58,0,1,1,0,1.17Zm-2.53-5a.58.58,0,0,1-.58-.58V3.14H10.73V7.67a.58.58,0,0,1-.58.58H5.65V18.34h7a.58.58,0,1,1,0,1.17H5.07a.58.58,0,0,1-.58-.58V6.7a.58.58,0,0,1,.06-.25.29.29,0,0,1,.07-.12L8.67,2.17l0,0,0,0A.32.32,0,0,1,9,2l.14,0h8.55a.58.58,0,0,1,.58.58V13.93a.58.58,0,0,1-.58.58ZM9.35,3.14,5.65,6.94v.15H9.56V3.15H9.35Zm0,0"/></svg>