<svg id="图层_1" data-name="图层 1" xmlns="http://www.w3.org/2000/svg" viewBox="0 0 24 24"><defs><style>.cls-1{fill:#fff;}</style></defs><title>xtsz</title><path class="cls-1" d="M21.53,14.16l-1.75-1.33a5,5,0,0,0,0-1.22l1.75-1.33a1.19,1.19,0,0,0,.29-1.57l-2-3.3a1.26,1.26,0,0,0-1.09-.63,1.14,1.14,0,0,0-.42.07l-2.08.81a7.06,7.06,0,0,0-1.09-.61L14.88,3a1.23,1.23,0,0,0-1.23-1.05H9.7a1.23,1.23,0,0,0-1.23,1l-.3,2.14a8,8,0,0,0-1.09.61L5,4.88a1.24,1.24,0,0,0-.44-.07,1.19,1.19,0,0,0-1.07.61l-2,3.32a1.2,1.2,0,0,0,.29,1.57l1.75,1.33c0,.22,0,.42,0,.61a3.56,3.56,0,0,0,0,.61L1.82,14.16a1.19,1.19,0,0,0-.29,1.57l2,3.3a1.26,1.26,0,0,0,1.09.63A1.15,1.15,0,0,0,5,19.58l2.08-.81a7.07,7.07,0,0,0,1.09.61l.31,2.12A1.24,1.24,0,0,0,9.7,22.55h3.94a1.23,1.23,0,0,0,1.23-1l.31-2.14a8,8,0,0,0,1.09-.61l2.08.81a1.24,1.24,0,0,0,.44.07A1.19,1.19,0,0,0,19.87,19l2-3.33a1.2,1.2,0,0,0-.31-1.55Zm-5.44-1.93a4.42,4.42,0,1,1-4.42-4.42,4.43,4.43,0,0,1,4.42,4.42Zm0,0"/></svg>