<svg id="图层_1" data-name="图层 1" xmlns="http://www.w3.org/2000/svg" viewBox="0 0 16 16"><defs><style>.cls-1{fill:#666;stroke:#666;stroke-miterlimit:10;stroke-width:0.1px;}</style></defs><title>xunheguanli</title><path class="cls-1" d="M4.47,3.11A.6.6,0,1,0,5,3.4a.6.6,0,0,0-.53-.29Zm0,1a.38.38,0,0,1-.36-.53l.36.14-.11-.37a.38.38,0,1,1,.11.75ZM4.47,1A2.71,2.71,0,1,0,7.16,3.71,2.7,2.7,0,0,0,4.47,1ZM2.35,2.62l.27.11a2.1,2.1,0,0,1,3.78.21H5.89a1.62,1.62,0,0,0-2.82,0l.25.1-.8.52Zm3.5,1.08s-.53,1-1.39,1a1.76,1.76,0,0,1-1.39-1,1.77,1.77,0,0,1,1.39-1c.86,0,1.39,1,1.39,1Zm.45,1a2.1,2.1,0,0,1-3.78-.21H3a1.62,1.62,0,0,0,2.82,0l-.25-.1.8-.52.16.91Zm1.33-.25A3.47,3.47,0,0,1,7.48,5h3.9a.25.25,0,0,0,.27-.27.27.27,0,0,0-.27-.27Zm4,2.34a.25.25,0,0,0-.27-.27h-5a3.51,3.51,0,0,1-1,.53h6a.27.27,0,0,0,.27-.27ZM12.35,3a.74.74,0,0,1,.74.75V5.25h.53V3.73a1.28,1.28,0,0,0-1.28-1.28H7.48A3.49,3.49,0,0,1,7.64,3h4.71ZM4.73,9.11h4.1a.27.27,0,1,0,0-.53H4.73a.27.27,0,0,0,0,.53ZM14.9,6.9l-1-1a.39.39,0,0,0-.53,0L8,11.37a.4.4,0,0,0,0,.53l1,1a.39.39,0,0,0,.53,0L14.9,7.4a.37.37,0,0,0,0-.51ZM9.18,12.38l-.75-.75,5.22-5.22.75.74Zm3.94,1.33a.76.76,0,0,1-.74.75H8.78V15h3.59a1.28,1.28,0,0,0,1.28-1.28V10.47h-.53Zm-9.29,0V7.23a3.54,3.54,0,0,1-.53-.1v6.59A1.28,1.28,0,0,0,4.57,15h.88v-.53H4.57a.74.74,0,0,1-.75-.75Zm2,1.28,2.77-1.3L7.18,12.25Zm1.86-1.46L7,13.87l.35-.72Zm0,0"/></svg>