<svg id="图层_1" data-name="图层 1" xmlns="http://www.w3.org/2000/svg" viewBox="0 0 16 16"><defs><style>.cls-1{fill:#666;stroke:#666;stroke-miterlimit:10;stroke-width:0.1px;}</style></defs><title>yewushezhi</title><path class="cls-1" d="M6.48,11.08a.22.22,0,0,1-.2-.13L6,10.29a3.15,3.15,0,0,1-.92,0l-.31.65a.22.22,0,0,1-.29.11l-1.37-.56a.23.23,0,0,1-.13-.27l.22-.67a3.57,3.57,0,0,1-.65-.65l-.67.22A.21.21,0,0,1,1.58,9L1,7.63a.23.23,0,0,1,.11-.29L1.78,7a3.15,3.15,0,0,1,0-.92l-.65-.31A.22.22,0,0,1,1,5.5l.56-1.37A.23.23,0,0,1,1.85,4l.67.22a3.56,3.56,0,0,1,.65-.65l-.22-.67a.21.21,0,0,1,.13-.27l1.37-.56a.23.23,0,0,1,.29.11L5,2.84a3.15,3.15,0,0,1,.92,0l.31-.65C6.34,2,6.46,2,6.57,2l1.37.56a.23.23,0,0,1,.13.27l-.22.67a3.56,3.56,0,0,1,.65.65L9.16,4a.21.21,0,0,1,.27.13L10,5.46a.23.23,0,0,1-.11.29l-.65.31a3.15,3.15,0,0,1,0,.92l.65.31a.22.22,0,0,1,.11.29L9.43,8.95a.23.23,0,0,1-.27.13l-.67-.22a3.56,3.56,0,0,1-.65.65l.22.67a.21.21,0,0,1-.13.27l-1.37.6s0,0-.09,0ZM6.1,9.82a.22.22,0,0,1,.2.13l.29.6,1-.4-.2-.63a.21.21,0,0,1,.09-.25,3.72,3.72,0,0,0,.78-.78.22.22,0,0,1,.25-.09l.63.2.4-1-.6-.29a.21.21,0,0,1-.11-.25,3,3,0,0,0,0-1.1.23.23,0,0,1,.11-.25l.6-.29-.4-1-.63.2a.21.21,0,0,1-.25-.09,3.72,3.72,0,0,0-.78-.78.22.22,0,0,1-.09-.25l.2-.63-1-.4-.29.6a.21.21,0,0,1-.25.11,3,3,0,0,0-1.1,0,.22.22,0,0,1-.25-.11l-.29-.6L3.43,3l.2.63a.21.21,0,0,1-.09.25,3.71,3.71,0,0,0-.78.78.22.22,0,0,1-.25.09l-.63-.2-.4,1,.6.29A.21.21,0,0,1,2.2,6a3,3,0,0,0,0,1.1.22.22,0,0,1-.11.25l-.6.29.4,1,.63-.2a.21.21,0,0,1,.25.09,3.71,3.71,0,0,0,.78.78.22.22,0,0,1,.09.25l-.2.6,1,.4.29-.6A.21.21,0,0,1,5,9.84a3,3,0,0,0,1.1,0s0,0,0,0Zm0,0"/><path class="cls-1" d="M5.52,8.19a1.58,1.58,0,0,1-.63-.13,1.61,1.61,0,1,1,.63.13Zm0-2.84A1.2,1.2,0,1,0,6,5.44a1,1,0,0,0-.45-.09Zm0,0"/><path class="cls-1" d="M12.43,7.63l-.22-.38a.81.81,0,0,0,.31-.36.87.87,0,0,0,0-.58.71.71,0,0,0-.4-.4.76.76,0,0,0-1,.4l-.4-.18a1.21,1.21,0,0,1,1.57-.65,1.16,1.16,0,0,1,.65.65,1.3,1.3,0,0,1,0,.92,1.3,1.3,0,0,1-.51.58Zm0,0"/><path class="cls-1" d="M12.32,14.79a.13.13,0,0,1-.09,0,.27.27,0,0,1-.11-.11l-.22-.56a1.5,1.5,0,0,1-.45,0l-.22.56a.27.27,0,0,1-.11.11.25.25,0,0,1-.18,0L10,14.39a.21.21,0,0,1-.11-.29l.22-.56a2.07,2.07,0,0,1-.31-.31l-.56.22a.25.25,0,0,1-.18,0,.27.27,0,0,1-.11-.11l-.45-1a.22.22,0,0,1,.11-.29l.56-.22a1.5,1.5,0,0,1,0-.45l-.56-.22a.21.21,0,0,1-.11-.29L8.87,10A.27.27,0,0,1,9,9.84a.24.24,0,0,1,.18,0l.56.22A2.07,2.07,0,0,1,10,9.76L9.81,9.2a.22.22,0,0,1,.11-.29l.94-.38a.22.22,0,0,1,.29.11l.22.56a1.49,1.49,0,0,1,.45,0l.22-.56a.27.27,0,0,1,.11-.11.25.25,0,0,1,.18,0l.94.38a.21.21,0,0,1,.11.29l-.22.56a2.08,2.08,0,0,1,.31.31L14,9.84a.24.24,0,0,1,.18,0,.27.27,0,0,1,.11.11l.38.94a.22.22,0,0,1-.11.29l-.56.22a1.5,1.5,0,0,1,0,.45l.56.22a.21.21,0,0,1,.11.29l-.31.94a.27.27,0,0,1-.11.11.25.25,0,0,1-.18,0l-.56-.22a2.07,2.07,0,0,1-.31.31l.22.56a.22.22,0,0,1-.11.29l-.94.38s-.07,0-.09,0ZM12,13.6a.2.2,0,0,1,.2.13l.22.51.51-.22-.22-.51a.25.25,0,0,1,.07-.27,2.33,2.33,0,0,0,.47-.47.21.21,0,0,1,.27-.07l.51.22.22-.51-.51-.22a.23.23,0,0,1-.13-.25,1.7,1.7,0,0,0,0-.67.23.23,0,0,1,.13-.25l.51-.22L14,10.29l-.51.22a.25.25,0,0,1-.27-.07,2.34,2.34,0,0,0-.47-.47.21.21,0,0,1-.07-.27l.22-.51L12.43,9l-.22.51a.23.23,0,0,1-.25.13,1.7,1.7,0,0,0-.67,0A.23.23,0,0,1,11,9.49L10.82,9l-.51.22.22.51a.25.25,0,0,1-.07.27,2.34,2.34,0,0,0-.47.47.21.21,0,0,1-.27.07l-.51-.22L9,10.81,9.5,11a.23.23,0,0,1,.13.25,1.7,1.7,0,0,0,0,.67.23.23,0,0,1-.13.25L9,12.42l.22.51.51-.22a.25.25,0,0,1,.27.07,2.34,2.34,0,0,0,.47.47.21.21,0,0,1,.07.27l-.22.51.51.22.22-.51a.23.23,0,0,1,.25-.13,1.7,1.7,0,0,0,.67,0Zm0,0"/><path class="cls-1" d="M14.24,8.52s-.07,0-.09,0l-.69-.34.2-.4.49.25.25-.49-.49-.25A.23.23,0,0,1,13.8,7a2.12,2.12,0,0,0,0-.65A.24.24,0,0,1,14,6.13L14.51,6l-.18-.51-.51.18a.22.22,0,0,1-.27-.09A2.25,2.25,0,0,0,13.13,5a.21.21,0,0,1-.07-.27l.25-.49L12.81,4l-.25.49a.22.22,0,0,1-.25.11,2.12,2.12,0,0,0-.65,0,.24.24,0,0,1-.25-.16l-.18-.51-.56.18.18.51-.43.16L10.19,4a.25.25,0,0,1,0-.18.23.23,0,0,1,.13-.11l.94-.31a.25.25,0,0,1,.18,0,.23.23,0,0,1,.11.13l.2.56a3,3,0,0,1,.45,0l.27-.54a.23.23,0,0,1,.13-.11.25.25,0,0,1,.18,0l.9.45a.22.22,0,0,1,.11.29l-.29.56a2.09,2.09,0,0,1,.29.34l.56-.2a.23.23,0,0,1,.29.13L15,6a.23.23,0,0,1-.13.29l-.56.2a3,3,0,0,1,0,.45l.54.27a.22.22,0,0,1,.11.29l-.45.9a.23.23,0,0,1-.13.11s-.07,0-.09,0Zm0,0"/><path class="cls-1" d="M11.65,12.82a1.25,1.25,0,0,1-1.12-.74,1.1,1.1,0,0,1,0-.92,1.21,1.21,0,0,1,2.24,0,1.1,1.1,0,0,1,0,.92,1.23,1.23,0,0,1-.65.65,1.17,1.17,0,0,1-.47.09Zm0-2a.69.69,0,0,0-.29.07.71.71,0,0,0-.4.4.87.87,0,0,0,0,.58.76.76,0,0,0,1,.4.71.71,0,0,0,.4-.4.87.87,0,0,0,0-.58.8.8,0,0,0-.72-.47Zm0,0"/></svg>