<svg id="图层_1" data-name="图层 1" xmlns="http://www.w3.org/2000/svg" viewBox="0 0 36 36"><defs><style>.cls-1{fill:#999;}</style></defs><title>yzm</title><path class="cls-1" d="M12.37,33.36A15,15,0,0,1,7.7,31.1,14.34,14.34,0,0,1,4.59,10.75,14.73,14.73,0,0,1,8.15,7.4h0a2.27,2.27,0,0,1,.43-.07c.08,0,.31-.1.32,0s-.08.1-.08.1l-.23,0-.2,0-.1,0-.1.06-.15.09-.16.07,0,0-.12.1s.11,0,.05.09,0,.06,0,.06,0,.1.14,0,.11.07.11.09.13.06.31-.07v.06l.08,0,.21,0s0,.05-.11.15a1.4,1.4,0,0,1-.38.16s-.17,0-.21.09H7.91l-.13,0a.91.91,0,0,1-.27.12.51.51,0,0,0-.19.06s-.07,0-.09.05.17,0,.17,0a.18.18,0,0,0,.14,0,.56.56,0,0,1,.2-.06l.15-.05a.9.9,0,0,0,.27.06l-.09-.09.13,0a.5.5,0,0,0,.29-.08c.12-.09.27-.05.34-.13s.22-.08.31-.11l.2-.06s0-.06.12-.06.08-.11,0-.1a.22.22,0,0,0,.14-.07c.07-.07.09,0,.23-.12s.08.09-.05.16H10a.69.69,0,0,1,.22-.09l.23,0,.1-.13.21-.06s.12.07.11.12a.4.4,0,0,0-.24,0,.61.61,0,0,1,.37,0,.25.25,0,0,0,.29,0h.12l.15.07s.26,0,.3.11a.1.1,0,0,0,.17.07s.22.18.19.25a.22.22,0,0,0,0,.15l.09.08.08-.13a.23.23,0,0,1,0-.17c.05-.11,0-.16,0-.16s.07.13,0,.21,0,.13.05.1a.33.33,0,0,0,.09-.1l0,.1s-.19,0-.21.06-.1.16,0,.11a.49.49,0,0,1-.05.16c0,.09.08.11.08.11l.13,0a.18.18,0,0,0,0-.16s.11,0,.07.14.06,0,.06,0,0,.12,0,.2v.14H13l0,.12H13s.07.12,0,.17,0,.06.09.05a.13.13,0,0,0,0,.17s0,0-.11-.07-.14,0-.15,0,.13.19.24.23V10l.13.08.06,0a.34.34,0,0,1,0,.05l.1,0s.13,0,.1.1a.21.21,0,0,0-.18,0c-.08,0,0,.08,0,.08s-.12.12,0,.21a4.21,4.21,0,0,1-.28.6.49.49,0,0,0-.14.2.22.22,0,0,0,0,.16.57.57,0,0,1-.13.21c-.09.09-.13.19,0,.16l0,.14,0,.16.1.16,0,.22.07.06s0,.09,0,.12.09.05.08.13a.34.34,0,0,1,0,.28l.17.07,0,.08.14,0v.09h.08l0,.08.08,0c0,.09,0,.14,0,.23l0,0,0,.09s0,0,0,.09a.29.29,0,0,0,0,.16c0,.07,0,.1,0,.16s.05,0,0,.11,0,.1.05.12a.14.14,0,0,1,.08.16c0,.06.06.11.06.11s0,.07-.11.05a.17.17,0,0,1-.1-.13.24.24,0,0,0,0,.22l.13.22.13,0a.17.17,0,0,1,0,.09c0,.05.09.08.09.08a.18.18,0,0,1,0,.15.22.22,0,0,1-.08.1s0,.09,0,.09,0,.11.09.13l.06.09s0,.12.1.12-.07.12-.05.15.1.11.13,0,.06,0,.1-.13,0,0-.06-.17-.11-.12-.11-.12l0-.17-.06-.11,0-.13-.05-.11,0-.1,0-.05,0-.06,0-.1c0-.05,0-.07,0-.12l0-.23L14,14.57l-.06,0,0-.09-.05-.06,0-.14s0-.07,0-.11l0-.09.12.08.08.07v.11l0,.07c0,.06,0,.09,0,.15s0,.08,0,.14l0,.08v.09h.09l0,.1.1.14.06,0,0,.09.08.07,0,.12.06,0,0,.08-.08.06v.07l.15.09.08.21.13.18.09.2.07.31,0,.07,0,.15-.09.14-.09.05,0,.06.12.25a.66.66,0,0,1,.17.23.35.35,0,0,0,.31.18l.11.21a.43.43,0,0,0,.19.15s.14.2.25.22.21.23.21.23l.2,0a.2.2,0,0,0,.24,0,.13.13,0,0,1,.22,0s.16.16.16.16l0,.1.07.2.06.12.11.1.2.12,0,.08.12,0,0,.06.17.08H18v.12l0,.11.12.23.06.05,0,.19-.07.15.18.14.08,0,.08.19,0,.12a.28.28,0,0,1,.14.09c0,.06.21.09.21.09l0,.1.09,0,0,.09a.14.14,0,0,0,.21,0,.09.09,0,0,0,0-.16s.17,0,.2-.11.15,0,.16.1a1.3,1.3,0,0,1,0,.23l.05.12,0,.06.11.18-.12.14-.09.28a.2.2,0,0,1-.11.26c-.17.07-.11.06-.25.16l-.18.15-.21.08-.06.12-.1.16s-.17,0-.11.15-.21.18-.15.22a.35.35,0,0,1,.1.15l.09,0,0,.08-.27.07-.11.16v.2s-.1,0-.08.09.2.23.2.23l0,.26.08.09c0,.2,0,.29,0,.48s0,.28.07.47l.07.25-.13.07.1.16.05.22.21.21.17.21.16.16,0,0,.11.2-.16.51a.69.69,0,0,1-.18.36c-.15.14-.14.4-.22.44s-.17.28-.17.28,0,0-.1.15-.28.21-.24.28,0,.19,0,.19-.15.09-.15.22a1.18,1.18,0,0,1-.18.41c-.13,0-.1.2-.21.24a.78.78,0,0,0-.24.23l-.2.14v.11l-.13.18,0,.1c-.25.19-.16.34-.26.37s-.09.18-.18.21a.11.11,0,0,0-.08.11c.18.08.28-.16.28-.16s.06-.12.11-.09,0,.11,0,.11a1.37,1.37,0,0,0-.13.22,1.09,1.09,0,0,1-.23.25s.21-.19.08-.2-.15,0-.17.1a.46.46,0,0,1-.09.14c-.09,0-.15.11-.15.11l-.12.06.22.06c-.13,0-.18.16-.18.16-.24,0-.22.22-.22.22a2.1,2.1,0,0,1-.09.22c0,.1.08,0,.08,0l-.14.13h.06l-.06.1a.16.16,0,0,1,0,.13c0,.09.12.07.12.07l-.12.08h.15l-.07,0,.07.06.1,0-.07.06.1,0,.12.07.07,0s0,0,0,.05h0A15.25,15.25,0,0,1,12.37,33.36Z"/><path class="cls-1" d="M19.2,32.34s.08-.07.11,0,.26,0,.26,0-.12-.1-.18-.12l-.09-.06.06-.11-.06,0,.05-.09-.1,0,.11-.09-.06-.08.12-.07h.08l.13-.06.1-.16.15-.07.1,0,.2-.12,0-.14H20l0-.13.09-.12.22-.07a.43.43,0,0,0,.22-.16c.06-.11.31-.17.31-.17L21,30.3l0-.06-.13,0-.06,0,.1-.23a.56.56,0,0,0,.42.08.51.51,0,0,0,.25-.32c0,.07.19,0,.19,0a.71.71,0,0,0,.29,0,.34.34,0,0,0,.29-.06c.1-.11.28-.16.33-.26a.18.18,0,0,0,0-.16s.24-.19.35-.12.21,0,.29-.08.14-.12.21-.12.24-.22.24-.22a.7.7,0,0,0,.3-.13.53.53,0,0,0,.25-.18.79.79,0,0,1,.26-.22s.32-.19.32-.3A.51.51,0,0,1,25,27.6a1.23,1.23,0,0,0,.27-.14,1,1,0,0,1,.37-.13.35.35,0,0,0,.25-.13h.42l.11-.06c.11-.06.14,0,.18,0a2,2,0,0,1,.2-.28,1.78,1.78,0,0,1,.3-.2s.08-.21.23-.22.06-.18.06-.18a.65.65,0,0,0,.18-.27,1.68,1.68,0,0,1,.25-.41c.2,0,.5-.29.5-.29a.93.93,0,0,1,.32-.21.42.42,0,0,0,.25-.26c.23-.22.06-.21.14-.36a.47.47,0,0,0,.08-.25,1,1,0,0,1-.24,0c-.12,0-.22-.28-.22-.28l-.1-.16-.06-.1-.35,0L28,23.48c-.09-.06-.14,0-.14,0l-.07-.27c-.05-.2-.44-.34-.44-.34s-.05-.6-.05-.6a.3.3,0,0,1-.19-.08c-.06-.07,0-.39,0-.39s-.14,0-.21-.2-.19-.22-.19-.22a.57.57,0,0,0-.22-.15c-.17-.07-.22,0-.22,0s-.23-.11-.23-.22a.32.32,0,0,0-.07-.19l-.08-.24-.17-.24-.12-.15.14-.11V20l-.13,0,0,.08-.08,0c0-.05,0-.08,0-.13l-.23-.08c0-.14-.12-.05-.12-.05a.28.28,0,0,1-.22.08c-.16,0,0-.19-.15-.15s-.37-.1-.37-.1c.08-.28-.21-.22-.21-.22l-.05-.21-.13.23-.22-.06a.48.48,0,0,0,.15-.21c0-.11-.13-.16-.34,0s-.2,0-.45,0a.37.37,0,0,0-.27.32.25.25,0,0,0-.32.16s-.16-.34-.37-.4-.26.2-.46,0-.24-.62-.24-.62l.06-.15.09-.21.07-.31.08,0,.1-.23-.16-.09-.05-.09-.31-.13s-.44,0-.54-.15a.18.18,0,0,1,.14-.12c.11,0,.13-.34.13-.34l.19-.21s0-.27.11-.3a.64.64,0,0,0,.15-.11c0-.06,0-.09,0-.15l-.35-.07-.23,0-.07,0h-.12l-.12.14s-.05.27-.21.25a.35.35,0,0,0-.25.07l-.28-.1s-.16-.19-.29-.21.1-.25,0-.34-.05-.36-.05-.36-.15-.1.05-.36,0-.3.2-.47-.08-.53.27-.57a1.3,1.3,0,0,0,.55-.18.52.52,0,0,1,.42.14c.18.17.41.32.53.17,0,0-.08.18.06.17s.15-.32.15-.32a.63.63,0,0,0,.39.12.18.18,0,0,1,.2.22.17.17,0,0,0,.27,0c.16-.14.19.18.14.35s.06.26,0,.41.12.22.09.41.19.18.28-.15.15-.29.07-.44a.37.37,0,0,0,0-.31.49.49,0,0,1,.17-.55c.13-.05.38-.21.45-.23s.06-.13.33-.12.49-.08.42-.25.12-.32.12-.32.15-.11.15-.24a.35.35,0,0,0,.27-.27s.32.14.4,0,.28,0,.29.09.13,0,.11-.19h-.11l-.06-.09s0,0,.07-.14.18-.1.18-.1.18,0,.19,0a.82.82,0,0,1,.23,0c.09,0,.07-.08.16,0s.22,0,.34.08a.47.47,0,0,0-.22.08.16.16,0,0,0,0,.23c0,.07.2,0,.28-.06s.19.08.26,0,.17.11.2,0,.15.1.16,0,.17.06.21,0-.09-.16-.09-.16,0-.1,0-.11-.14.08-.14.08a.13.13,0,0,0-.09.11.76.76,0,0,0-.15-.09.08.08,0,0,0,.1-.07c0-.09-.14-.07-.14-.07l-.14-.11s0-.05,0-.09h-.05l0,.1,0-.1a.14.14,0,0,1,.05-.19.31.31,0,0,1-.24-.18s.16.13.23,0,.08.09.1,0-.17-.16-.17-.16l-.27-.09a1,1,0,0,0-.46.05.31.31,0,0,1,.37-.12s.13-.17.26-.09a2.81,2.81,0,0,1,.64.25.88.88,0,0,0,.38.15.75.75,0,0,1,.49,0s.14-.1.22-.06l0-.27-.21-.16-.06-.12V11l-.18-.1v-.1L28,10.65l0-.1-.06,0a.61.61,0,0,1-.07-.27c0-.11-.12-.26-.12-.26a1.29,1.29,0,0,0-.15-.3,1.63,1.63,0,0,1-.15-.45.76.76,0,0,0-.13.17.11.11,0,0,0-.1.1c0,.09-.13,0-.22,0s-.14-.11-.26-.21A.59.59,0,0,1,26.64,9c0-.09.07-.08.07-.2s-.09,0-.12,0,0-.08-.13-.12,0-.12-.08-.18-.08-.16-.2-.21-.12-.12-.18-.12a.37.37,0,0,1-.21,0c-.13-.05-.15-.13-.26-.16s-.24-.12-.18.09-.16.19-.16.19a.26.26,0,0,1,.17.22l-.06,0,0,.09h-.09l0,.09.18.15a.64.64,0,0,1,.07.36c0,.18-.29.18-.29.18l-.3,0v.13l.05.17c0,.07,0,.1,0,.16s0,.16,0,.19-.13-.07-.13-.07l-.09.09L24.48,10l-.08-.13h.13V9.73l-.2-.16,0-.12s0,0,.05-.14-.15-.21-.15-.21-.33-.05-.42-.18-.24-.1-.39-.35-.32-.18-.32-.18,0-.1-.26-.15-.18-.37-.18-.37l-.25-.09a.43.43,0,0,1,.17-.35c.18-.1.53-.3.73-.23l.06-.13s0,0,.09,0,.26.08.35,0,.25,0,.25-.15.16,0,.2-.1-.11-.05-.11-.05.18-.11.22.07c0,0,0,.06,0,.1s-.06-.08-.16,0a.33.33,0,0,0-.11.19s-.14.11-.18.11,0,.14.23.11a.13.13,0,0,0,0,.12c.05,0,.25,0,.25,0s.06.1.09,0a.1.1,0,0,1,.12.06.34.34,0,0,0,.2.12.1.1,0,0,0,.15.07.17.17,0,0,1,.13,0,.28.28,0,0,0-.24-.21s0-.15-.11-.18a.28.28,0,0,1-.13-.11s-.13,0-.18-.21c0,0,.12.21.24.16a.53.53,0,0,0-.11-.25.22.22,0,0,1,.13.14l0-.08s.18.08.24,0,.12,0,0-.18a1.19,1.19,0,0,1-.13-.25s.12.1.22.07,0-.15-.06-.17A.14.14,0,0,1,25,6.33l.18,0,.11.1.08.05.19,0,0-.06.13.09.12.23.18.09.07.17.08,0c0,.08,0,.13,0,.21l.16,0,.09.12,0,.12h-.25l-.1.12,0,.12-.32-.17-.23-.06-.11,0s0,.06,0,.09l.17.1.05.11h.18l.21,0,.17.17.16.19,0,.07.05.05,0,.09.1.09.11-.05.15.21.2.14.21.1-.12-.15-.08-.16-.16-.17.2.1,0,.17.16.05,0,.12.13.07-.06-.13s0-.06,0-.1h.11l.06-.06-.09,0,0-.09-.06,0V8.4l-.14-.08-.09-.14,0-.13,0-.05.13,0,.06.1.07.08,0,.13.08.05.07,0,.05.05.07-.09.11.06s.06,0,.07-.1.12,0,.13,0-.16-.23-.24-.22S27.76,8,27.69,8a.17.17,0,0,0-.1-.12c-.1-.05,0-.09-.22-.2s-.17-.24-.17-.24l.12,0,0-.11,0-.11-.13-.11,0-.09L27,7l-.19-.09,0-.06a.34.34,0,0,1-.13-.13c0-.08-.24-.18-.27-.13l-.07-.15-.11-.07-.06-.11L26,6.18,26,6.1l.08,0-.13-.15-.17-.09-.17-.07-.2-.11V5.7l.1.15.13.08.14.07H25.6l-.16-.09s0,.08-.16,0,.12,0,.11-.11l-.08-.2-.23-.09-.19,0-.16,0-.12,0,0,.11.11.08-.17,0a.2.2,0,0,0,.11.14s-.22,0-.18-.19,0-.15,0-.15a.56.56,0,0,1,.32-.06.74.74,0,0,0-.34-.12c-.16,0-.29,0-.44.06a.25.25,0,0,0-.11.25l.31.15-.27-.06a.28.28,0,0,0,.27.21.14.14,0,0,0,.11.14c.11,0,.11,0,.2.16,0,0-.11.29-.2.27s0-.12-.08-.13-.05.18,0,.17-.2,0-.24-.13.15,0,.09-.2A.38.38,0,0,1,23.92,6c0-.1-.2,0-.22.14,0,0-.1-.05,0-.16s-.07-.13-.07-.13l-.09-.06s-.08,0-.11,0,.12-.1.12-.1l-.16-.15a.31.31,0,0,0-.13-.23s.12,0,.15-.09.07-.07.09,0l.18,0s.26-.15.36-.12,0-.07-.14,0a.27.27,0,0,1-.23-.1,2.21,2.21,0,0,0-.49-.13C23.06,4.84,23,5,23,5l.07.13,0,.11-.16,0,0-.07,0-.1c0-.08,0-.12,0-.19l-.15-.13,0-.05-.25,0-.18-.06-.17,0,.12.08s0,0,0,.08L22,4.71h-.13l-.08,0,.21.14.17.1.1.15.18.08.17,0,.1.07,0,.13a.18.18,0,0,1,0,.19c-.06.11-.13-.09-.13-.09a.15.15,0,0,0-.19,0c-.12.07-.13.11-.13.11l.1.11a.41.41,0,0,0-.15,0,.7.7,0,0,1-.43,0,1.53,1.53,0,0,1-.52-.27c-.15-.13-.28-.19-.4-.14s-.18,0-.27,0,.18.11.08.37c0,0,0-.21-.15-.24a.21.21,0,0,0-.18-.06.07.07,0,0,0-.06-.09c-.08,0-.22.1-.35.07a4.57,4.57,0,0,1-.5-.17l.31,0A.34.34,0,0,0,19.53,5L19.05,5s0-.06-.18-.08l-.12-.06-.17-.05s-.22-.06-.29.05l-.11,0,0-.12-.1,0-.08,0s-.05.1-.12.09-.17-.2-.17-.2a.21.21,0,0,0-.19,0,.32.32,0,0,1-.16.07V4.59H17l-.18.06H16.7a.26.26,0,0,0-.12,0c-.08,0-.23,0-.35,0a.72.72,0,0,0-.3.12l-.07-.1-.08,0h-.22a.83.83,0,0,1-.22,0,.74.74,0,0,0-.29,0,1.19,1.19,0,0,1-.29,0,.26.26,0,0,1-.17,0,2.6,2.6,0,0,0-.65.08l0,0-.32,0,0,0-.26,0-.14.07-.22,0-.21.08-.11.06h0A15.14,15.14,0,0,1,23.29,3.76h0l.07,0a.36.36,0,0,0,0,0l.12,0,0,.09a.06.06,0,0,1,.09,0,.58.58,0,0,0,.12.13l.11.1.2,0,.18.07.15,0h.09a.15.15,0,0,1,.15,0,.08.08,0,0,0-.08.1l.12.06.15.08.06.15-.09-.11-.1-.06-.16-.06h-.09l0,0v0l0,.06-.14-.05a.36.36,0,0,1-.17,0c-.05,0-.07.06-.07.06s0-.09-.1-.07,0,0,0,0l-.09-.07-.14,0h-.09l-.08-.06,0-.07-.19,0-.18-.07-.13,0H23s.16.05.18.12.15.13.15.13l.2,0,.12,0,.09.09,0,.08-.06,0V4.8l.1.05,0,.07L24,5l.16,0,.11,0,.23.1.61.19.11.08.17,0,.15.09V5.47l.1,0-.15-.11-.15-.13-.26-.09-.28,0s-.23,0-.3-.09a.36.36,0,0,0-.23-.12L24,4.68l.21.05.06,0,.26.1.22.08.13.06H25l.25.09.18.11v.06l.16.08.08.11.12-.12.17.05-.1-.16h.09V5.11l.19.09h.15l.11,0h.08L26.4,5h.15l.08.07.07,0h0c.35.19.69.39,1,.61v0l-.23-.1-.37-.19H27l-.32-.15-.09.07.22.17.14.09.23.16-.34-.15-.06,0,.26.19-.1.05L27.2,6l.17.15.24,0,.09.11.18.11.28.15.14.16.17.11,0,.15.22.39v.12l.1.12s0,.05,0,.09,0,.12,0,.21l.22.15,0,.05-.08.08,0,.15.09.07.12.11h.09l.07.06V8.52l.06.06c0,.07,0,.11,0,.18l-.15-.06-.17-.06c0,.06,0,.09,0,.15l-.05.07,0,.07v.15l.14.14.07.17c0,.07,0,.11,0,.18l.11.07c0,.06,0,.1,0,.16l.11.14.08.19.1.2.06.12.06,0,.06.12.17.11.07,0,.09.07v.09l.07.07.1.09.1,0,.13-.25c0-.07,0-.1,0-.17l.13.09.11-.18c0-.05,0-.08,0-.13l.13,0,.16.15,0-.11,0,.13.16,0,.15.09.14,0,.15,0-.13-.28.21.37.15.11.08,0,.2.18.13.09.1,0,.2.2,0,0c.14.28.28.56.4.85h0l0,0,0,.08,0-.07,0,0,0-.11L33,12l-.08-.13-.11-.1,0,0-.07,0,.14.14.07,0,0,.07L32.84,12l-.05,0,.05.08.13.11,0,.05.07.08-.1-.05,0,.07.09.08.09.08.07.1.11.14,0,0a14.16,14.16,0,0,1,.33,9.14,14.38,14.38,0,0,1-2.32,4.57A15,15,0,0,1,19.2,32.34Z"/></svg>