<svg id="图层_1" data-name="图层 1" xmlns="http://www.w3.org/2000/svg" viewBox="0 0 24 24"><defs><style>.cls-1{fill:#b8b8b8;}</style></defs><title>yzt</title><path class="cls-1" d="M18.2,17.54h1.27v1.3H18.2Zm-6.35,2.61h2.54v1.3H11.85ZM21.78,4.78,19.32,2.62a.63.63,0,0,0-.66-.11l-1.91.81-1.54,1a.66.66,0,0,0-.29.62l.19,1.92L13.34,8.1l-2.09.25L9.57,7.42l-1-2.08a.63.63,0,0,0-.84-.29L5.43,6.19a.65.65,0,0,0-.36.58v.85l-.75.75H3.47A.62.62,0,0,0,3,8.56L1.89,9.69a.66.66,0,0,0-.19.47.68.68,0,0,0,.19.47l1,1,.57,2.8a.65.65,0,0,0,.22.37L5.77,16.5a.63.63,0,0,0,.4.14h2.3v1.42a.64.64,0,0,0,.63.65h2.55l1.16.81a.62.62,0,0,0,.67,0L15,18.63l2.17-.84a.66.66,0,0,0,.29-.23l1.36-1.92a.67.67,0,0,0,.12-.38v-1.9a.66.66,0,0,0-.19-.47L18,12.1l1-.68a.66.66,0,0,0,.22-.25l.71-1.45,1.79-1.28A.66.66,0,0,0,22,7.9V5.27a.62.62,0,0,0-.22-.5Zm0,0"/></svg>