<svg id="图层_1" data-name="图层 1" xmlns="http://www.w3.org/2000/svg" viewBox="0 0 16 16"><defs><style>.cls-1{fill:#666;}.cls-2{fill:none;}</style></defs><title>zxgl</title><path class="cls-1" d="M4.47,14a.4.4,0,0,1-.3-.67l1.4-1.56A3.2,3.2,0,0,1,8,10.69h5A1.56,1.56,0,0,0,14.5,9.13V4.38a1.56,1.56,0,0,0-1.56-1.56H3.36A1.56,1.56,0,0,0,1.8,4.38V9.13a1.56,1.56,0,0,0,1.56,1.56h.16a.4.4,0,1,1,0,.81H3.36A2.37,2.37,0,0,1,1,9.13V4.38A2.37,2.37,0,0,1,3.36,2h9.58a2.37,2.37,0,0,1,2.37,2.37V9.13a2.37,2.37,0,0,1-2.37,2.37H8a2.4,2.4,0,0,0-1.78.79l-1.4,1.56a.4.4,0,0,1-.3.13Zm0,0"/><rect class="cls-2" x="1" y="2" width="14.31" height="12"/><path class="cls-1" d="M8.48,7.1H4.14a.4.4,0,0,1,0-.81H8.48a.4.4,0,1,1,0,.81ZM12,7.1H10.46a.4.4,0,1,1,0-.81H12a.4.4,0,1,1,0,.81Zm0,0"/></svg>